<svg width="20" height="26" viewBox="0 0 20 26" fill="none" xmlns="http://www.w3.org/2000/svg">
<path d="M18.6107 9.28713L18.1906 21.962C18.1548 23.0476 17.6961 24.0765 16.9119 24.8304C16.1276 25.5843 15.0795 26.0038 13.99 26H6.00893C4.92016 26.0039 3.87267 25.5849 3.08852 24.8319C2.30437 24.0789 1.8452 23.051 1.80835 21.9662L1.38829 9.28713C1.3791 9.00947 1.48093 8.73955 1.67137 8.53674C1.86181 8.33393 2.12527 8.21484 2.40378 8.20568C2.6823 8.19651 2.95306 8.29803 3.15649 8.48788C3.35993 8.67773 3.47939 8.94038 3.48858 9.21804L3.90864 21.8961C3.92955 22.4373 4.16003 22.9494 4.55167 23.3248C4.94331 23.7002 5.46563 23.9097 6.00893 23.9093H13.99C14.534 23.9097 15.0569 23.6996 15.4487 23.3233C15.8404 22.947 16.0705 22.4339 16.0903 21.8919L16.5104 9.21804C16.5196 8.94038 16.639 8.67773 16.8425 8.48788C17.0459 8.29803 17.3167 8.19651 17.5952 8.20568C17.8737 8.21484 18.1371 8.33393 18.3276 8.53674C18.518 8.73955 18.6199 9.00947 18.6107 9.28713ZM20 5.06914C20 5.3468 19.8894 5.61308 19.6924 5.80942C19.4955 6.00575 19.2284 6.11605 18.9499 6.11605H1.05014C0.771629 6.11605 0.50452 6.00575 0.30758 5.80942C0.11064 5.61308 0 5.3468 0 5.06914C0 4.79148 0.11064 4.5252 0.30758 4.32886C0.50452 4.13253 0.771629 4.02223 1.05014 4.02223H4.30559C4.63833 4.02313 4.9595 3.90057 5.20659 3.67842C5.45369 3.45627 5.60905 3.15042 5.64243 2.82038C5.71992 2.04618 6.08376 1.32846 6.66306 0.80708C7.24235 0.285695 7.99561 -0.00201353 8.77606 1.06082e-05H11.2229C12.0033 -0.00201353 12.7566 0.285695 13.3359 0.80708C13.9152 1.32846 14.279 2.04618 14.3565 2.82038C14.3899 3.15042 14.5453 3.45627 14.7924 3.67842C15.0395 3.90057 15.3606 4.02313 15.6934 4.02223H18.9488C19.2273 4.02223 19.4944 4.13253 19.6914 4.32886C19.8883 4.5252 19.9989 4.79148 19.9989 5.06914H20ZM7.46548 4.02223H12.5356C12.3976 3.70789 12.3073 3.37481 12.2678 3.03395C12.2418 2.7759 12.1206 2.53665 11.9277 2.36258C11.7349 2.1885 11.4841 2.09199 11.2239 2.09173H8.77711C8.51695 2.09199 8.26615 2.1885 8.0733 2.36258C7.88045 2.53665 7.75928 2.7759 7.73326 3.03395C7.69339 3.37486 7.60278 3.70795 7.46443 4.02223H7.46548ZM8.52297 19.8839V10.9695C8.52297 10.6919 8.41233 10.4256 8.21539 10.2292C8.01845 10.0329 7.75134 9.92261 7.47283 9.92261C7.19431 9.92261 6.9272 10.0329 6.73026 10.2292C6.53332 10.4256 6.42268 10.6919 6.42268 10.9695V19.8881C6.42268 20.1658 6.53332 20.4321 6.73026 20.6284C6.9272 20.8247 7.19431 20.935 7.47283 20.935C7.75134 20.935 8.01845 20.8247 8.21539 20.6284C8.41233 20.4321 8.52297 20.1658 8.52297 19.8881V19.8839ZM13.5784 19.8839V10.9695C13.5784 10.6919 13.4677 10.4256 13.2708 10.2292C13.0738 10.0329 12.8067 9.92261 12.5282 9.92261C12.2497 9.92261 11.9826 10.0329 11.7857 10.2292C11.5887 10.4256 11.4781 10.6919 11.4781 10.9695V19.8881C11.4781 20.1658 11.5887 20.4321 11.7857 20.6284C11.9826 20.8247 12.2497 20.935 12.5282 20.935C12.8067 20.935 13.0738 20.8247 13.2708 20.6284C13.4677 20.4321 13.5784 20.1658 13.5784 19.8881V19.8839Z" fill="black"/>
</svg>
