<svg width="24" height="25" viewBox="0 0 24 25" fill="none" xmlns="http://www.w3.org/2000/svg">
<path d="M24 8.14931L22.9943 0.77758L20.3802 3.48662C18.5324 1.64259 16.1648 0.458827 13.6228 0.10791C10.9929 -0.253127 8.32173 0.297483 6.02495 1.67405C3.72829 3.05057 1.93337 5.17394 0.91815 7.71533C-0.0970669 10.2567 -0.275932 13.0743 0.409252 15.7318C1.0967 18.3892 2.60982 20.7374 4.71432 22.4129C6.81882 24.0884 9.39729 24.9977 12.0505 25C14.7042 24.9982 17.2833 24.0892 19.3885 22.4137C21.4936 20.7381 23.0073 18.3896 23.6952 15.7318L22.0299 15.2728C21.4421 17.5514 20.1452 19.565 18.3407 21.0009C16.5362 22.4369 14.3251 23.2149 12.0505 23.2142C9.77623 23.2153 7.56529 22.4374 5.76127 21.0013C3.95725 19.5652 2.66119 17.5514 2.0745 15.2728C1.48443 12.9944 1.63637 10.5777 2.50673 8.398C3.37708 6.21832 4.91713 4.39765 6.88771 3.21875C8.81868 2.06474 11.0583 1.59065 13.2709 1.86753C15.4836 2.1444 17.5501 3.15732 19.161 4.75453L16.9016 7.09748L18.6065 7.35106L24 8.14931Z" fill="black"/>
</svg>
